<?xml version="1.0" standalone="no"?>
<!DOCTYPE svg PUBLIC "-//W3C//DTD SVG 20010904//EN"
 "http://www.w3.org/TR/2001/REC-SVG-20010904/DTD/svg10.dtd">
<svg version="1.0" xmlns="http://www.w3.org/2000/svg"
 width="1749.000000pt" height="1031.000000pt" viewBox="0 0 1749.000000 1031.000000"
 preserveAspectRatio="xMidYMid meet">
<g transform="translate(0.000000,1031.000000) scale(0.100000,-0.100000)"
fill="#ffffff" stroke="none">
<path d="M4795 10254 c-22 -2 -110 -11 -195 -20 -916 -91 -1844 -466 -2585
-1043 -464 -362 -837 -766 -1158 -1256 -116 -178 -183 -296 -298 -525 -644
-1290 -703 -2831 -158 -4187 67 -167 250 -539 334 -678 509 -844 1193 -1497
2025 -1933 784 -412 1634 -610 2513 -588 464 12 845 68 1278 191 556 157 1102
419 1569 753 149 107 376 290 478 385 48 45 99 93 114 106 l27 24 86 -81 c115
-109 347 -301 475 -394 753 -544 1556 -854 2484 -959 156 -18 252 -22 521 -23
337 -1 464 7 730 45 1044 148 1991 597 2767 1312 293 271 557 580 784 922 608
916 898 1956 853 3055 -53 1282 -578 2482 -1487 3397 -770 776 -1799 1297
-2872 1452 -281 41 -368 46 -760 46 -475 0 -661 -18 -1075 -106 -891 -188
-1753 -638 -2406 -1256 l-100 -94 -101 96 c-636 605 -1489 1051 -2388 1250
-157 35 -380 72 -546 91 -132 15 -804 28 -909 18z m730 -405 c814 -64 1603
-343 2290 -810 198 -135 473 -358 597 -486 l48 -48 -83 -100 c-243 -295 -457
-626 -631 -973 -71 -141 -156 -329 -156 -343 0 -5 97 -9 215 -9 l216 0 43 93
c64 138 168 324 273 492 94 148 285 409 362 495 l41 45 36 -40 c19 -22 83
-103 141 -180 186 -246 313 -450 454 -727 l90 -178 214 0 c118 0 215 3 215 6
0 13 -96 226 -156 345 -173 346 -389 678 -633 973 -45 54 -81 102 -81 106 0
20 329 302 495 425 718 532 1541 840 2445 915 198 16 608 14 802 -5 979 -96
1840 -456 2603 -1089 239 -199 555 -535 752 -799 628 -844 956 -1878 930
-2927 -28 -1078 -402 -2072 -1095 -2910 -147 -178 -483 -507 -667 -654 -249
-198 -583 -415 -840 -544 -1310 -656 -2845 -670 -4160 -38 -428 206 -856 499
-1181 809 l-88 84 59 72 c166 201 337 442 475 671 105 174 306 574 334 668 l7
22 -215 0 -216 0 -81 -162 c-45 -90 -109 -210 -142 -268 -121 -212 -332 -509
-495 -700 -6 -7 -60 58 -186 225 -189 249 -319 460 -462 748 l-79 157 -217 0
-218 0 9 -23 c53 -137 210 -452 311 -627 133 -228 322 -498 483 -690 l80 -94
-69 -64 c-293 -268 -600 -495 -904 -670 -1368 -782 -3043 -829 -4450 -122
-470 236 -851 510 -1221 880 -810 808 -1288 1843 -1379 2984 -13 165 -13 566
0 721 54 628 199 1160 470 1710 224 457 502 852 855 1214 989 1016 2353 1531
3760 1420z"/>
<path d="M4660 7118 c-178 -108 -131 -382 74 -428 96 -21 205 30 256 120 50
89 26 219 -52 285 -48 41 -90 55 -161 55 -53 0 -71 -5 -117 -32z"/>
<path d="M5425 7131 c-120 -56 -169 -198 -110 -318 124 -249 509 -98 431 169
-31 106 -113 168 -222 168 -36 0 -74 -8 -99 -19z"/>
<path d="M4983 6399 c-489 -71 -893 -411 -1041 -879 -42 -130 -55 -219 -55
-375 0 -115 5 -174 22 -252 83 -397 331 -717 686 -888 194 -94 332 -125 550
-125 230 0 401 40 591 139 632 330 868 1114 523 1736 -122 222 -320 411 -548
525 -207 103 -501 151 -728 119z m335 -424 c268 -56 479 -222 597 -467 68
-141 80 -197 79 -373 0 -136 -3 -158 -28 -235 -120 -367 -432 -601 -806 -604
-248 -2 -451 84 -621 261 -124 130 -194 269 -225 444 -67 381 147 773 504 923
149 63 348 83 500 51z"/>
<path d="M1750 5140 l0 -1220 215 0 215 0 2 535 3 536 542 -536 541 -535 274
0 273 0 -610 610 -610 610 610 610 610 610 -275 0 -275 -1 -542 -535 -543
-536 0 536 0 536 -215 0 -215 0 0 -1220z"/>
<path d="M6920 5140 l0 -1220 215 0 215 0 0 440 0 440 260 0 260 0 262 -440
263 -440 252 0 252 0 -146 233 c-81 127 -220 349 -310 491 -90 142 -162 260
-161 261 2 0 35 20 73 42 352 207 474 625 288 986 -84 163 -240 296 -428 363
-167 60 -220 64 -787 64 l-508 0 0 -1220z m1034 835 c44 -8 108 -28 142 -45
190 -93 258 -332 151 -533 -37 -71 -100 -128 -181 -166 -106 -50 -148 -55
-441 -56 l-270 0 -3 408 -2 407 262 0 c181 -1 288 -5 342 -15z"/>
<path d="M9410 5140 l0 -1220 559 0 c684 0 737 6 926 99 237 117 358 321 359
606 0 174 -36 293 -121 403 -40 52 -113 120 -152 141 -12 7 0 23 61 80 144
134 204 308 178 516 -33 265 -176 443 -430 536 -151 55 -209 59 -822 59 l-558
0 0 -1220z m1099 830 c140 -18 246 -88 277 -183 12 -35 15 -71 12 -126 -8
-131 -68 -215 -188 -263 -53 -22 -71 -23 -422 -26 l-368 -3 0 299 c0 164 3
302 7 305 10 11 599 8 682 -3z m111 -1028 c94 -31 143 -71 180 -146 26 -53 32
-76 32 -138 1 -106 -22 -170 -86 -234 -58 -58 -127 -89 -234 -104 -73 -10
-650 -14 -676 -4 -14 5 -16 44 -16 331 l0 324 368 -3 c345 -4 371 -5 432 -26z"/>
<path d="M11840 5140 l0 -1220 810 0 810 0 0 205 0 205 -600 0 -600 0 0 305 0
305 500 0 500 0 0 205 0 205 -500 0 -500 0 0 305 0 305 600 0 600 0 0 200 0
200 -810 0 -810 0 0 -1220z"/>
<path d="M14030 5140 l0 -1220 210 0 210 0 2 438 3 437 260 0 260 0 261 -435
260 -435 253 -3 c201 -2 251 0 245 10 -4 7 -139 224 -301 481 -162 257 -296
474 -299 481 -4 9 15 25 55 46 278 149 438 478 377 780 -32 155 -85 258 -196
374 -134 140 -291 219 -500 251 -73 12 -209 15 -597 15 l-503 0 0 -1220z
m1077 827 c173 -51 269 -155 291 -315 30 -220 -96 -397 -328 -459 -53 -14
-113 -17 -335 -17 l-270 -1 -3 408 -2 409 297 -5 c230 -3 310 -8 350 -20z"/>
</g>
</svg>
